<svg width="300" height="300" viewBox="0 0 300 300" fill="none" xmlns="http://www.w3.org/2000/svg">
<rect x="1.5" y="1.5" width="97" height="97" rx="8.5" fill="#D9D9D9" stroke="#302CDC" stroke-width="3"/>
<path d="M54.7301 32.0909V67H50.5028V36.5227H50.2983L41.7756 42.1818V37.8864L50.5028 32.0909H54.7301Z" fill="#302CDC"/>
<rect x="201.5" y="201.5" width="97" height="97" rx="8.5" fill="#D9D9D9" stroke="#302CDC" stroke-width="3"/>
<path d="M250.006 267.477C247.665 267.477 245.597 267.062 243.802 266.233C242.018 265.392 240.626 264.239 239.626 262.773C238.626 261.295 238.131 259.614 238.143 257.727C238.131 256.25 238.421 254.886 239.012 253.636C239.603 252.375 240.41 251.324 241.433 250.483C242.467 249.631 243.62 249.091 244.893 248.864V248.659C243.222 248.227 241.893 247.29 240.904 245.847C239.915 244.392 239.427 242.739 239.438 240.886C239.427 239.114 239.876 237.528 240.785 236.131C241.694 234.733 242.944 233.631 244.535 232.824C246.137 232.017 247.961 231.614 250.006 231.614C252.029 231.614 253.836 232.017 255.427 232.824C257.018 233.631 258.268 234.733 259.177 236.131C260.097 237.528 260.563 239.114 260.575 240.886C260.563 242.739 260.058 244.392 259.058 245.847C258.069 247.29 256.756 248.227 255.12 248.659V248.864C256.381 249.091 257.518 249.631 258.529 250.483C259.54 251.324 260.347 252.375 260.95 253.636C261.552 254.886 261.859 256.25 261.87 257.727C261.859 259.614 261.347 261.295 260.336 262.773C259.336 264.239 257.944 265.392 256.16 266.233C254.387 267.062 252.336 267.477 250.006 267.477ZM250.006 263.727C251.586 263.727 252.95 263.472 254.097 262.96C255.245 262.449 256.131 261.727 256.756 260.795C257.381 259.864 257.7 258.773 257.711 257.523C257.7 256.205 257.359 255.04 256.688 254.028C256.018 253.017 255.103 252.222 253.944 251.642C252.796 251.062 251.484 250.773 250.006 250.773C248.518 250.773 247.188 251.062 246.018 251.642C244.859 252.222 243.944 253.017 243.273 254.028C242.614 255.04 242.29 256.205 242.302 257.523C242.29 258.773 242.592 259.864 243.205 260.795C243.83 261.727 244.722 262.449 245.881 262.96C247.04 263.472 248.415 263.727 250.006 263.727ZM250.006 247.159C251.256 247.159 252.364 246.909 253.33 246.409C254.308 245.909 255.075 245.21 255.631 244.312C256.188 243.415 256.472 242.364 256.484 241.159C256.472 239.977 256.194 238.949 255.648 238.074C255.103 237.187 254.347 236.506 253.381 236.028C252.415 235.54 251.29 235.295 250.006 235.295C248.7 235.295 247.558 235.54 246.58 236.028C245.603 236.506 244.847 237.187 244.313 238.074C243.779 238.949 243.518 239.977 243.529 241.159C243.518 242.364 243.785 243.415 244.33 244.312C244.887 245.21 245.654 245.909 246.631 246.409C247.609 246.909 248.734 247.159 250.006 247.159Z" fill="#302CDC"/>
<rect x="1.5" y="201.5" width="97" height="97" rx="8.5" fill="#D9D9D9" stroke="#302CDC" stroke-width="3"/>
<path d="M40.9936 267L56.6072 236.114V235.841H38.6072V232.091H60.9709V236.045L45.4254 267H40.9936Z" fill="#302CDC"/>
<rect x="201.5" y="101.5" width="97" height="97" rx="8.5" fill="#D9D9D9" stroke="#302CDC" stroke-width="3"/>
<path d="M250.228 167.477C248.796 167.455 247.364 167.182 245.933 166.659C244.501 166.136 243.194 165.256 242.012 164.017C240.83 162.767 239.881 161.08 239.165 158.955C238.45 156.818 238.092 154.136 238.092 150.909C238.092 147.818 238.381 145.08 238.961 142.693C239.54 140.295 240.381 138.278 241.484 136.642C242.586 134.994 243.915 133.744 245.472 132.892C247.04 132.04 248.808 131.614 250.773 131.614C252.728 131.614 254.467 132.006 255.989 132.79C257.523 133.562 258.773 134.642 259.739 136.028C260.705 137.415 261.33 139.011 261.614 140.818H257.455C257.069 139.25 256.319 137.949 255.205 136.915C254.092 135.881 252.614 135.364 250.773 135.364C248.069 135.364 245.938 136.54 244.381 138.892C242.836 141.244 242.058 144.545 242.046 148.795H242.319C242.955 147.83 243.711 147.006 244.586 146.324C245.472 145.631 246.45 145.097 247.518 144.722C248.586 144.347 249.717 144.159 250.91 144.159C252.91 144.159 254.739 144.659 256.398 145.659C258.058 146.648 259.387 148.017 260.387 149.767C261.387 151.506 261.887 153.5 261.887 155.75C261.887 157.909 261.404 159.886 260.438 161.682C259.472 163.466 258.114 164.886 256.364 165.943C254.626 166.989 252.58 167.5 250.228 167.477ZM250.228 163.727C251.66 163.727 252.944 163.369 254.08 162.653C255.228 161.937 256.131 160.977 256.79 159.773C257.461 158.568 257.796 157.227 257.796 155.75C257.796 154.307 257.472 152.994 256.825 151.812C256.188 150.619 255.308 149.67 254.183 148.966C253.069 148.261 251.796 147.909 250.364 147.909C249.285 147.909 248.279 148.125 247.347 148.557C246.415 148.977 245.597 149.557 244.893 150.295C244.2 151.034 243.654 151.881 243.256 152.835C242.859 153.778 242.66 154.773 242.66 155.818C242.66 157.205 242.984 158.5 243.631 159.705C244.29 160.909 245.188 161.881 246.325 162.619C247.472 163.358 248.773 163.727 250.228 163.727Z" fill="#302CDC"/>
<rect x="101.5" y="201.5" width="97" height="97" rx="8.5" fill="#D9D9D9" stroke="#302CDC" stroke-width="3"/>
<path d="M149.921 267.477C147.921 267.477 146.12 267.08 144.518 266.284C142.915 265.489 141.631 264.398 140.665 263.011C139.7 261.625 139.171 260.045 139.08 258.273H143.171C143.33 259.852 144.046 261.159 145.319 262.193C146.603 263.216 148.137 263.727 149.921 263.727C151.353 263.727 152.626 263.392 153.739 262.722C154.864 262.051 155.745 261.131 156.381 259.96C157.029 258.778 157.353 257.443 157.353 255.955C157.353 254.432 157.018 253.074 156.347 251.881C155.688 250.676 154.779 249.727 153.62 249.034C152.461 248.341 151.137 247.989 149.648 247.977C148.58 247.966 147.484 248.131 146.359 248.472C145.234 248.801 144.308 249.227 143.58 249.75L139.626 249.273L141.739 232.091H159.876V235.841H145.285L144.058 246.136H144.262C144.978 245.568 145.876 245.097 146.955 244.722C148.035 244.347 149.16 244.159 150.33 244.159C152.467 244.159 154.37 244.67 156.04 245.693C157.722 246.705 159.04 248.091 159.995 249.852C160.961 251.614 161.444 253.625 161.444 255.886C161.444 258.114 160.944 260.102 159.944 261.852C158.955 263.591 157.592 264.966 155.853 265.977C154.114 266.977 152.137 267.477 149.921 267.477Z" fill="#302CDC"/>
<rect x="1.5" y="101.5" width="97" height="97" rx="8.5" fill="#D9D9D9" stroke="#302CDC" stroke-width="3"/>
<path d="M37.397 159.841V156.364L52.7379 132.091H55.2607V137.477H53.5561L41.9652 155.818V156.091H62.6243V159.841H37.397ZM53.8288 167V158.784V157.165V132.091H57.8516V167H53.8288Z" fill="#302CDC"/>
<rect x="201.5" y="1.5" width="97" height="97" rx="8.5" fill="#D9D9D9" stroke="#302CDC" stroke-width="3"/>
<path d="M250.128 67.4773C247.878 67.4773 245.872 67.0909 244.111 66.3182C242.361 65.5455 240.969 64.4716 239.935 63.0966C238.912 61.7102 238.355 60.1023 238.264 58.2727H242.56C242.651 59.3977 243.037 60.3693 243.719 61.1875C244.401 61.9943 245.293 62.6193 246.395 63.0625C247.497 63.5057 248.719 63.7273 250.06 63.7273C251.56 63.7273 252.889 63.4659 254.048 62.9432C255.207 62.4205 256.116 61.6932 256.776 60.7614C257.435 59.8295 257.764 58.75 257.764 57.5227C257.764 56.2386 257.446 55.108 256.81 54.1307C256.173 53.142 255.241 52.3693 254.014 51.8125C252.787 51.2557 251.287 50.9773 249.514 50.9773H246.719V47.2273H249.514C250.901 47.2273 252.116 46.9773 253.162 46.4773C254.219 45.9773 255.043 45.2727 255.634 44.3636C256.236 43.4545 256.537 42.3864 256.537 41.1591C256.537 39.9773 256.276 38.9489 255.753 38.0739C255.23 37.1989 254.491 36.517 253.537 36.0284C252.594 35.5398 251.48 35.2955 250.196 35.2955C248.991 35.2955 247.855 35.517 246.787 35.9602C245.73 36.392 244.866 37.0227 244.196 37.8523C243.526 38.6705 243.162 39.6591 243.105 40.8182H239.014C239.082 38.9886 239.634 37.3864 240.668 36.0114C241.702 34.625 243.054 33.5455 244.724 32.7727C246.406 32 248.253 31.6136 250.264 31.6136C252.423 31.6136 254.276 32.0511 255.821 32.9261C257.366 33.7898 258.554 34.9318 259.384 36.3523C260.213 37.7727 260.628 39.3068 260.628 40.9545C260.628 42.9205 260.111 44.5966 259.077 45.983C258.054 47.3693 256.662 48.3295 254.901 48.8636V49.1364C257.105 49.5 258.827 50.4375 260.065 51.9489C261.304 53.4489 261.923 55.3068 261.923 57.5227C261.923 59.4205 261.406 61.125 260.372 62.6364C259.349 64.1364 257.952 65.3182 256.179 66.1818C254.406 67.0455 252.389 67.4773 250.128 67.4773Z" fill="#302CDC"/>
<rect x="101.5" y="1.5" width="97" height="97" rx="8.5" fill="#D9D9D9" stroke="#302CDC" stroke-width="3"/>
<path d="M139.082 67V63.9318L150.605 51.3182C151.957 49.8409 153.071 48.5568 153.946 47.4659C154.821 46.3636 155.469 45.3295 155.889 44.3636C156.321 43.3864 156.537 42.3636 156.537 41.2955C156.537 40.0682 156.241 39.0057 155.651 38.108C155.071 37.2102 154.276 36.517 153.264 36.0284C152.253 35.5398 151.116 35.2955 149.855 35.2955C148.514 35.2955 147.344 35.5739 146.344 36.1307C145.355 36.6761 144.588 37.4432 144.043 38.4318C143.509 39.4205 143.241 40.5795 143.241 41.9091H139.219C139.219 39.8636 139.69 38.0682 140.634 36.5227C141.577 34.9773 142.861 33.7727 144.486 32.9091C146.122 32.0455 147.957 31.6136 149.991 31.6136C152.037 31.6136 153.849 32.0455 155.429 32.9091C157.009 33.7727 158.247 34.9375 159.145 36.4034C160.043 37.8693 160.491 39.5 160.491 41.2955C160.491 42.5795 160.259 43.8352 159.793 45.0625C159.338 46.2784 158.543 47.6364 157.406 49.1364C156.281 50.625 154.719 52.4432 152.719 54.5909L144.878 62.9773V63.25H161.105V67H139.082Z" fill="#302CDC"/>
</svg>
